<svg width="30" height="30" viewBox="0 0 30 30" fill="none" xmlns="http://www.w3.org/2000/svg">
<path d="M26.1087 3.28129L26.1072 25.8019C26.5104 26.4653 26.9275 26.7204 27.2773 26.7187C27.6244 26.7171 28.0371 26.4589 28.4324 25.8154L27.3528 14.3127L27.3402 14.1726L27.4266 14.0609C28.6672 12.469 29.1008 9.71868 28.7469 7.39239C28.5699 6.22919 28.1995 5.17638 27.6808 4.43213C27.2458 3.80799 26.7269 3.40984 26.1088 3.28129H26.1087ZM4.28988 3.28152L4.28895 7.21474L3.55301 7.2138V3.28176H2.71483L2.71494 7.21398H1.97795V3.28176H1.12424V9.33026C1.12419 9.99922 1.48928 10.3702 2.06409 10.5995L2.30198 10.6946L2.2967 10.9506C2.17952 15.9059 2.06368 20.8611 1.94737 25.8163C2.34815 26.4721 2.75983 26.7204 3.1026 26.7187C3.44537 26.7171 3.8567 26.4623 4.25238 25.8145C4.11668 20.8606 3.98111 15.9066 3.84568 10.9526L3.83865 10.6948L4.0773 10.6007C4.68223 10.3601 5.07568 9.95182 5.07568 9.33061V3.28152H4.28988ZM15 5.56644C12.4981 5.56644 10.0986 6.56033 8.32949 8.32947C6.56035 10.0986 5.56646 12.4981 5.56646 15C5.56646 17.502 6.56035 19.9014 8.32949 21.6706C10.0986 23.4397 12.4981 24.4336 15 24.4336C17.502 24.4336 19.9014 23.4397 21.6706 21.6706C23.4397 19.9014 24.4336 17.502 24.4336 15C24.4336 12.4981 23.4397 10.0986 21.6706 8.32947C19.9014 6.56033 17.502 5.56644 15 5.56644Z" fill="#007595"/>
</svg>
