<svg width="39" height="39" viewBox="0 0 39 39" fill="none" xmlns="http://www.w3.org/2000/svg">
<g clip-path="url(#clip0_1_2955)">
<path d="M26 10.8333C26 11.408 25.7717 11.9591 25.3654 12.3654C24.9591 12.7717 24.408 13 23.8333 13H15.1667C14.592 13 14.0409 12.7717 13.6346 12.3654C13.2283 11.9591 13 11.408 13 10.8333V2.16667C13 1.59203 13.2283 1.04093 13.6346 0.634602C14.0409 0.228273 14.592 0 15.1667 0L23.8333 0C24.408 0 24.9591 0.228273 25.3654 0.634602C25.7717 1.04093 26 1.59203 26 2.16667V10.8333ZM0 15.1667V36.8333C0 37.408 0.228273 37.9591 0.634602 38.3654C1.04093 38.7717 1.59203 39 2.16667 39H36.8333C37.408 39 37.9591 38.7717 38.3654 38.3654C38.7717 37.9591 39 37.408 39 36.8333V15.1667H0Z" fill="#CCD6DD"/>
<path d="M19.5 13H2.16667C1.59203 13 1.04093 13.2283 0.634602 13.6346C0.228273 14.0409 0 14.592 0 15.1667H21.6667C21.6667 14.592 21.4384 14.0409 21.0321 13.6346C20.6257 13.2283 20.0746 13 19.5 13Z" fill="#99AAB5"/>
<path d="M36.8333 13H19.4999C18.9253 13 18.3742 13.2283 17.9679 13.6346C17.5615 14.0409 17.3333 14.592 17.3333 15.1667H38.9999C38.9999 14.592 38.7716 14.0409 38.3653 13.6346C37.959 13.2283 37.4079 13 36.8333 13Z" fill="#99AAB5"/>
<path d="M2.16675 23.8334H36.8334V28.1667H2.16675V23.8334ZM2.16675 17.3334H36.8334V21.6667H2.16675V17.3334ZM2.16675 30.3334H36.8334V34.6667H2.16675V30.3334Z" fill="#55ACEE"/>
<path d="M8.66675 13H30.3334V39H8.66675V13Z" fill="#E1E8ED"/>
<path d="M10.8333 21.6666H28.1666V26H10.8333V21.6666ZM10.8333 15.1666H28.1666V19.5H10.8333V15.1666ZM10.8333 28.1666H28.1666V32.5H10.8333V28.1666Z" fill="#55ACEE"/>
<path d="M14.0833 34.6666H24.9166V39H14.0833V34.6666Z" fill="#3B88C3"/>
<path d="M23.8334 4.33337H20.5834V1.08337H18.4167V4.33337H15.1667V6.50004H18.4167V9.75004H20.5834V6.50004H23.8334V4.33337Z" fill="#DD2E44"/>
<path d="M28.1667 10.8334H10.8334C10.2588 10.8334 9.70768 11.0616 9.30135 11.468C8.89502 11.8743 8.66675 12.4254 8.66675 13H30.3334C30.3334 12.4254 30.1051 11.8743 29.6988 11.468C29.2925 11.0616 28.7414 10.8334 28.1667 10.8334Z" fill="#99AAB5"/>
</g>
<defs>
<clipPath id="clip0_1_2955">
<rect width="39" height="39" fill="white"/>
</clipPath>
</defs>
</svg>
